<svg width="37" height="36" viewBox="0 0 37 36" fill="none" xmlns="http://www.w3.org/2000/svg">
<path fill-rule="evenodd" clip-rule="evenodd" d="M29.2626 13.5338C29.2626 13.2667 29.1279 13.1328 28.8586 13.1328C28.8054 13.1328 28.7578 13.1364 28.7154 13.1429C28.6729 13.1486 28.6254 13.1602 28.5742 13.1753C28.5584 13.1803 28.5462 13.1782 28.5361 13.1702C28.5267 13.1609 28.5217 13.1479 28.5217 13.1306L28.5339 12.3746C28.5339 12.3415 28.5368 12.3221 28.5418 12.3163C28.5469 12.3106 28.5634 12.3077 28.593 12.3077H29.3086C29.3288 12.3077 29.3374 12.3192 29.3374 12.3415V12.4193C29.3374 12.4416 29.3288 12.4531 29.3086 12.4531H28.6772C28.6758 12.5525 28.6736 12.6497 28.6714 12.744C28.6693 12.839 28.6678 12.9362 28.6664 13.0356C28.7348 13.0061 28.8176 12.991 28.9155 12.991C29.0617 12.991 29.1805 13.0356 29.2712 13.1263C29.3619 13.2192 29.4073 13.3438 29.4073 13.5007C29.4073 13.6922 29.3547 13.8398 29.2496 13.9442C29.1502 14.0436 29.012 14.0933 28.8378 14.0933C28.7751 14.0933 28.7204 14.089 28.675 14.081C28.6282 14.0738 28.5814 14.0602 28.5318 14.0414C28.5123 14.0335 28.503 14.0191 28.503 13.999V13.8989C28.503 13.8722 28.5123 13.8636 28.5318 13.8751C28.5829 13.9025 28.6318 13.9212 28.6794 13.932C28.7283 13.9428 28.7802 13.9486 28.8378 13.9486C28.9609 13.9486 29.0602 13.9147 29.1373 13.847C29.2208 13.7736 29.2626 13.6699 29.2626 13.5338ZM21.5802 14.0436V12.5021C21.537 12.5438 21.4966 12.582 21.4585 12.6187C21.4203 12.6547 21.3814 12.6936 21.339 12.7346C21.3246 12.749 21.3102 12.7476 21.2972 12.7303L21.2554 12.6734C21.2511 12.6648 21.249 12.6569 21.249 12.6482C21.249 12.6396 21.2526 12.6324 21.2598 12.6259L21.5845 12.3178C21.5902 12.3113 21.5982 12.3077 21.609 12.3077H21.6658C21.6954 12.3077 21.7126 12.3106 21.7177 12.3163C21.722 12.3221 21.7242 12.3415 21.7242 12.3746V14.0436C21.7242 14.0659 21.7148 14.0767 21.6954 14.0767H21.609C21.5902 14.0767 21.5802 14.0659 21.5802 14.0436ZM13.8949 13.1897C13.8949 12.6936 14.0151 12.4459 14.2549 12.4459C14.4954 12.4459 14.6149 12.6936 14.6149 13.1897C14.6149 13.6879 14.4954 13.937 14.2549 13.937C14.0151 13.937 13.8949 13.6879 13.8949 13.1897ZM14.7661 13.1897C14.7661 13.0637 14.7574 12.9506 14.7409 12.8513C14.7243 12.7512 14.6998 12.6634 14.6674 12.5856C14.581 12.3912 14.4435 12.294 14.2549 12.294C14.0641 12.294 13.9258 12.3912 13.8409 12.5856C13.7739 12.7404 13.7401 12.942 13.7401 13.1897C13.7401 13.788 13.9122 14.0861 14.2549 14.0861C14.5954 14.0861 14.7661 13.788 14.7661 13.1897ZM6.76688 13.477C7.02392 13.1623 7.15208 12.924 7.15208 12.7606C7.15208 12.6662 7.124 12.587 7.06856 12.5237C7.01456 12.4625 6.94616 12.4315 6.86552 12.4315C6.75248 12.4315 6.6344 12.4668 6.51128 12.5381C6.49256 12.5489 6.48104 12.5438 6.47816 12.5237L6.4652 12.4459C6.4616 12.4186 6.46808 12.402 6.4868 12.3955C6.55736 12.3595 6.62216 12.3329 6.67904 12.3149C6.73592 12.2976 6.79496 12.289 6.85472 12.289C6.98864 12.289 7.09592 12.3271 7.17512 12.4027C7.2644 12.4848 7.30904 12.6022 7.30904 12.7541C7.30904 12.8124 7.2968 12.8765 7.2716 12.9463C7.2464 13.0154 7.21184 13.0882 7.1672 13.1638C7.13912 13.2084 7.09952 13.266 7.0484 13.3373C6.998 13.4078 6.93968 13.4842 6.87344 13.5641C6.82448 13.6246 6.77696 13.685 6.72872 13.747C6.68048 13.8089 6.63152 13.8694 6.58256 13.9298H7.31552C7.33496 13.9298 7.34504 13.9406 7.34504 13.963V14.0436C7.34504 14.0659 7.33496 14.0767 7.31552 14.0767H6.4616C6.44648 14.0767 6.43424 14.076 6.42704 14.0753C6.41912 14.0746 6.41336 14.0724 6.40976 14.0688C6.40688 14.0645 6.40472 14.058 6.404 14.0494C6.40328 14.0407 6.40256 14.0278 6.40256 14.0105L6.40472 13.9579C6.40472 13.9378 6.41048 13.9212 6.42128 13.9082L6.76688 13.477ZM27.1234 19.62L28.3201 16.1258L29.4368 19.62H27.1234ZM29.6146 22.5806H31.8027V22.2545L31.0554 22.0406L28.8428 15.3511L28.8399 15.3425H28.0875L25.7295 22.0205L25.0527 22.235V22.5806H26.9247V22.2343L26.2854 22.0421L26.9413 20.1326H29.5873L30.1834 22.0428L29.6146 22.2552V22.5806ZM20.5419 22.2048L21.1539 21.991L20.9221 16.5276L18.3272 22.5806H17.9535L17.9506 22.5734L15.5833 16.5506L15.301 21.9708L16.0254 22.2041V22.5806H14.0612V22.2048L14.0691 22.2019L14.7351 21.9708L15.0303 15.8198L14.5717 15.637V15.3425H15.9296L15.9325 15.3504L18.2278 21.3264L20.7507 15.3425H22.1382V15.6679L21.6385 15.8508L21.9135 21.991L22.5874 22.2041V22.5806H20.5419V22.2048ZM10.3489 22.577L7.56032 19.0879V18.6322L7.5632 18.6286L9.94064 15.8371L9.4784 15.6478V15.3425H11.2388V15.719L10.9443 15.8141C10.7499 15.8868 10.585 15.9905 10.454 16.1201L10.0306 16.542L8.20112 18.6977L10.8046 22.009L11.565 22.2041V22.5806H10.3525L10.3489 22.577ZM6.57032 22.0514V15.8616L5.98856 15.6787V15.3425H7.952V15.6787L7.34 15.8616V22.0514L8.024 22.2343V22.5806H5.91728V22.2343L6.57032 22.0514ZM32.211 25.5938C32.2686 25.5938 32.319 25.5974 32.3636 25.6039C32.4075 25.6104 32.4558 25.6219 32.5069 25.6385C32.5292 25.645 32.5378 25.6586 32.5335 25.6774L32.5162 25.763C32.5119 25.789 32.499 25.7947 32.4788 25.7832C32.437 25.7638 32.3967 25.7515 32.3578 25.745C32.3182 25.7378 32.2693 25.7342 32.2088 25.7342C32.1598 25.7342 32.1138 25.7407 32.0698 25.7522C32.0266 25.7638 31.9892 25.7818 31.9575 25.8055C31.9258 25.8286 31.9006 25.8581 31.8812 25.8934C31.8618 25.9286 31.8531 25.9697 31.8531 26.0186C31.8531 26.0575 31.8654 26.0928 31.8913 26.1266C31.9172 26.1605 31.9482 26.1914 31.9863 26.221C32.0238 26.2505 32.0648 26.2771 32.108 26.3016C32.1519 26.3261 32.1908 26.3484 32.2261 26.3686C32.275 26.3966 32.3218 26.4247 32.3672 26.4542C32.4133 26.4838 32.4543 26.5169 32.4889 26.5536C32.5242 26.5903 32.553 26.6306 32.576 26.6746C32.5976 26.7185 32.6084 26.7696 32.6084 26.8265C32.6084 26.8999 32.5933 26.9654 32.563 27.0223C32.5328 27.0792 32.4925 27.1282 32.4428 27.1685C32.3931 27.2074 32.3355 27.2376 32.2693 27.2585C32.2038 27.2808 32.1354 27.2909 32.0648 27.2909C32 27.2909 31.9424 27.2873 31.8913 27.2779C31.8402 27.2693 31.7833 27.2549 31.7199 27.234C31.6962 27.2268 31.6868 27.2131 31.6911 27.1944L31.6998 27.0929C31.7034 27.0806 31.7077 27.0734 31.7142 27.0691C31.7206 27.0641 31.7286 27.0655 31.7379 27.0713C31.789 27.0994 31.8409 27.1188 31.8934 27.1318C31.946 27.144 32.0058 27.1505 32.0734 27.1505C32.1814 27.1505 32.2693 27.121 32.3377 27.0619C32.4061 27.0036 32.4406 26.9208 32.4406 26.8135C32.4406 26.771 32.4241 26.7278 32.391 26.6861C32.3578 26.6429 32.3118 26.6026 32.2527 26.5651C32.2009 26.5327 32.1433 26.4989 32.0778 26.4636C32.013 26.4283 31.951 26.3894 31.892 26.3477C31.833 26.3059 31.784 26.2591 31.7437 26.2073C31.7048 26.1547 31.6839 26.0942 31.6839 26.0258C31.6839 25.9546 31.699 25.8926 31.7286 25.8394C31.7581 25.7861 31.7977 25.7407 31.8474 25.7047C31.8963 25.6687 31.9525 25.6414 32.0158 25.6226C32.0792 25.6039 32.1447 25.5938 32.211 25.5938ZM30.5636 27.1174H30.4282V25.763H30.6673C30.8674 25.763 31.0251 25.8127 31.1403 25.9106C31.2699 26.0222 31.3354 26.195 31.3354 26.4283C31.3354 26.8877 31.0777 27.1174 30.5636 27.1174ZM30.6738 25.627H30.3267C30.2958 25.627 30.2778 25.6298 30.272 25.6349C30.2677 25.6392 30.2648 25.6579 30.2648 25.6889V27.1944C30.2648 27.2254 30.2677 27.2434 30.272 27.2484C30.2778 27.2534 30.2958 27.2563 30.3267 27.2563H30.5542C30.6975 27.2563 30.8257 27.2398 30.9394 27.2074C31.0525 27.175 31.1497 27.1289 31.2282 27.0691C31.3131 26.9986 31.3779 26.9093 31.4254 26.8027C31.4722 26.6947 31.4967 26.573 31.4967 26.437C31.4967 26.1871 31.4334 25.9934 31.3066 25.853C31.1648 25.7026 30.9546 25.627 30.6738 25.627ZM29.6002 26.3974C29.5491 26.4125 29.4937 26.419 29.4332 26.419H29.2014V25.763H29.4289C29.5088 25.763 29.575 25.7688 29.6283 25.781C29.6809 25.7926 29.7241 25.812 29.7572 25.8394C29.7903 25.8667 29.8141 25.902 29.8278 25.9445C29.8422 25.9884 29.8486 26.0402 29.8486 26.1022C29.8486 26.1504 29.8386 26.1943 29.8177 26.2339C29.7975 26.2721 29.7687 26.3052 29.732 26.3333C29.6953 26.3614 29.6514 26.383 29.6002 26.3974ZM29.7291 26.4967C29.7666 26.4787 29.8026 26.4564 29.8371 26.429C29.8717 26.4024 29.9026 26.3714 29.9286 26.3376C29.9552 26.3038 29.9761 26.2678 29.9919 26.2282C30.007 26.1878 30.015 26.1468 30.015 26.1022C30.015 26.0302 30.0049 25.9654 29.9854 25.907C29.9653 25.848 29.935 25.7976 29.8947 25.7573C29.8537 25.7155 29.8033 25.6838 29.7421 25.6608C29.6809 25.6385 29.6074 25.627 29.5239 25.627H29.1056C29.0898 25.627 29.0775 25.627 29.0682 25.6277C29.0595 25.6291 29.053 25.6313 29.0487 25.6356C29.0437 25.6399 29.0415 25.6464 29.0408 25.6558C29.0401 25.6644 29.0394 25.6766 29.0394 25.6932V27.2254C29.0394 27.2455 29.0502 27.2563 29.0703 27.2563H29.1704C29.1906 27.2563 29.2014 27.2455 29.2014 27.2254V26.5579H29.3871C29.431 26.5565 29.4678 26.555 29.4966 26.5536C29.5246 26.5522 29.5563 26.5478 29.5902 26.5399C29.6067 26.5723 29.6305 26.6191 29.6614 26.6796C29.6859 26.7307 29.7212 26.7998 29.7651 26.8877C29.809 26.9748 29.8645 27.0871 29.9314 27.2254C29.9408 27.2455 29.9574 27.2563 29.9797 27.2563H30.0942C30.1035 27.2563 30.1093 27.2527 30.1122 27.2462C30.1158 27.2398 30.1158 27.2318 30.1122 27.2254L29.7291 26.4967ZM27.7858 26.6796C27.8478 26.527 27.9082 26.3758 27.968 26.2267C28.0278 26.0777 28.089 25.9272 28.1509 25.7746C28.2128 25.9272 28.2718 26.0777 28.3287 26.2267C28.3856 26.3758 28.4446 26.527 28.5066 26.6796H27.7858ZM28.2654 25.6486C28.2582 25.6313 28.2452 25.6226 28.2265 25.6226H28.0911C28.0724 25.6226 28.0587 25.6313 28.0508 25.6486L27.4014 27.2254C27.3934 27.2455 27.4006 27.2563 27.4208 27.2563H27.5252C27.5338 27.2563 27.541 27.2549 27.5482 27.252C27.5547 27.2484 27.5612 27.2398 27.5677 27.2254C27.5936 27.1562 27.6202 27.0886 27.6469 27.0223C27.6735 26.9568 27.7002 26.8891 27.7282 26.82H28.5598L28.7233 27.2254C28.7298 27.2398 28.7362 27.2484 28.742 27.252C28.7485 27.2549 28.7571 27.2563 28.7658 27.2563H28.8716C28.8918 27.2563 28.899 27.2455 28.891 27.2254L28.2654 25.6486ZM27.5958 25.6579L27.1357 27.234C27.1314 27.2484 27.1213 27.2563 27.1069 27.2563H26.9593C26.9427 27.2563 26.9334 27.2484 26.9305 27.234L26.5172 25.8026C26.4459 26.0424 26.3754 26.28 26.307 26.5169C26.2371 26.7545 26.1673 26.9928 26.0967 27.234C26.0924 27.2484 26.0823 27.2563 26.0679 27.2563H25.9153C25.8987 27.2563 25.8894 27.2484 25.8872 27.234L25.4336 25.6579C25.4307 25.65 25.4314 25.6428 25.4358 25.637C25.4394 25.6306 25.4466 25.627 25.4552 25.627H25.5589C25.5798 25.627 25.5927 25.6378 25.5992 25.6579L25.9974 27.0886C26.0665 26.8481 26.1356 26.6112 26.2047 26.3786C26.2746 26.1461 26.343 25.9092 26.4128 25.6687C26.4157 25.6543 26.4222 25.6428 26.4322 25.637C26.443 25.6306 26.4553 25.627 26.4682 25.627H26.5827C26.6079 25.627 26.6245 25.6406 26.6317 25.6687L27.0363 27.0792C27.104 26.8366 27.1717 26.599 27.2372 26.3686C27.3034 26.1382 27.3718 25.9013 27.441 25.6579C27.4446 25.6486 27.4489 25.6414 27.4561 25.6356C27.464 25.6298 27.4719 25.627 27.4806 25.627H27.5734C27.5828 25.627 27.5893 25.6306 27.5936 25.637C27.5979 25.6428 27.5986 25.65 27.5958 25.6579ZM24.4976 26.6796C24.5595 26.527 24.6207 26.3758 24.6805 26.2267C24.7402 26.0777 24.8007 25.9272 24.8626 25.7746C24.9246 25.9272 24.9843 26.0777 25.0412 26.2267C25.0974 26.3758 25.1571 26.527 25.219 26.6796H24.4976ZM24.9778 25.6486C24.9699 25.6313 24.957 25.6226 24.9375 25.6226H24.8029C24.7834 25.6226 24.7705 25.6313 24.7633 25.6486L24.1131 27.2254C24.1059 27.2455 24.1124 27.2563 24.1333 27.2563H24.237C24.2456 27.2563 24.2535 27.2549 24.26 27.252C24.2672 27.2484 24.273 27.2398 24.2787 27.2254C24.3054 27.1562 24.332 27.0886 24.3579 27.0223C24.3853 26.9568 24.4126 26.8891 24.4407 26.82H25.2716L25.4358 27.2254C25.4408 27.2398 25.4473 27.2484 25.4545 27.252C25.461 27.2549 25.4682 27.2563 25.4775 27.2563H25.5841C25.6042 27.2563 25.6107 27.2455 25.6035 27.2254L24.9778 25.6486ZM23.4558 26.383C23.4601 26.3887 23.463 26.406 23.463 26.437V27.1354C23.463 27.1512 23.4579 27.1649 23.4486 27.1764C23.4392 27.1886 23.4277 27.1973 23.4169 27.203C23.3456 27.229 23.2722 27.2498 23.1944 27.2635C23.1166 27.2779 23.0367 27.2844 22.9518 27.2844C22.8294 27.2844 22.7163 27.2657 22.6126 27.229C22.509 27.1915 22.419 27.1368 22.3441 27.0655C22.2685 26.9942 22.2102 26.9064 22.1677 26.8013C22.1266 26.6962 22.1058 26.5766 22.1058 26.4413C22.1058 26.3182 22.1245 26.2051 22.1641 26.1022C22.2022 25.9992 22.2584 25.9106 22.3318 25.8358C22.4053 25.7609 22.4938 25.7026 22.5982 25.6608C22.7034 25.619 22.8214 25.5982 22.9518 25.5982C23.0346 25.5982 23.1066 25.6025 23.1678 25.609C23.229 25.6162 23.2945 25.6313 23.3636 25.6529C23.3859 25.6594 23.3946 25.6738 23.3902 25.6975L23.3787 25.7789C23.3773 25.7976 23.3665 25.8041 23.3456 25.7983C23.2794 25.7738 23.216 25.7573 23.1555 25.7494C23.095 25.7407 23.0274 25.7364 22.9518 25.7364C22.8474 25.7364 22.753 25.7544 22.6681 25.789C22.5831 25.8228 22.5111 25.871 22.4514 25.933C22.3916 25.9949 22.3462 26.0683 22.3146 26.1547C22.2829 26.2418 22.2663 26.3369 22.2663 26.4413C22.2663 26.5543 22.2836 26.6551 22.3174 26.743C22.3513 26.8315 22.3988 26.9042 22.46 26.964C22.5212 27.0238 22.5932 27.0691 22.6774 27.1001C22.7602 27.131 22.8517 27.1454 22.9518 27.1454C23.1159 27.1454 23.2326 27.126 23.3017 27.0864V26.514H22.8574C22.8366 26.514 22.8265 26.5039 22.8265 26.483V26.406C22.8265 26.3858 22.8366 26.3758 22.8574 26.3758H23.401C23.432 26.3758 23.45 26.3779 23.4558 26.383ZM21.8754 25.6529V27.1944C21.8754 27.2254 21.8725 27.2434 21.8674 27.2484C21.8624 27.2534 21.8444 27.2563 21.8134 27.2563H21.6788C21.6666 27.2563 21.6579 27.2549 21.6536 27.252C21.6478 27.2484 21.6414 27.2412 21.6342 27.229L20.8198 25.8293V27.2254C20.8198 27.2455 20.8105 27.2563 20.7889 27.2563H20.6902C20.6694 27.2563 20.6593 27.2455 20.6593 27.2254V25.6838C20.6593 25.6529 20.6622 25.6356 20.6672 25.6306C20.6715 25.6248 20.6902 25.6226 20.7212 25.6226H20.8227C20.8422 25.6226 20.8544 25.6241 20.8616 25.6277C20.8681 25.632 20.8753 25.6399 20.8825 25.6529L21.7162 27.0778V25.6529C21.7162 25.6327 21.7263 25.6226 21.7472 25.6226H21.8444C21.8653 25.6226 21.8754 25.6327 21.8754 25.6529ZM20.4253 25.6579V27.2254C20.4253 27.2455 20.4145 27.2563 20.3943 27.2563H20.2878C20.2669 27.2563 20.2568 27.2455 20.2568 27.2254V25.6579C20.2568 25.6378 20.2669 25.627 20.2878 25.627H20.3943C20.4145 25.627 20.4253 25.6378 20.4253 25.6579ZM20.1682 25.6579V25.7321C20.1682 25.753 20.1574 25.763 20.1373 25.763H19.6772V27.2254C19.6772 27.2455 19.6671 27.2563 19.647 27.2563H19.5447C19.5246 27.2563 19.5138 27.2455 19.5138 27.2254V25.763H19.058C19.0371 25.763 19.027 25.753 19.027 25.7321V25.6579C19.027 25.6378 19.0371 25.627 19.058 25.627H20.1373C20.1574 25.627 20.1682 25.6378 20.1682 25.6579ZM18.9169 27.2585H18.127C18.0961 27.2585 18.0781 27.2556 18.073 27.2506C18.068 27.2455 18.0651 27.2275 18.0651 27.1966V25.6795C18.0651 25.6522 18.068 25.6356 18.073 25.6306C18.0781 25.6248 18.0946 25.6226 18.1227 25.6226H18.8902C18.9111 25.6226 18.9212 25.6327 18.9212 25.6529V25.7299C18.9212 25.7508 18.9111 25.7609 18.8902 25.7609H18.2264V26.3426H18.8571C18.878 26.3426 18.8881 26.3527 18.8881 26.3729V26.4521C18.8881 26.473 18.878 26.483 18.8571 26.483H18.2264V27.1174H18.9169C18.937 27.1174 18.9478 27.1274 18.9478 27.1476V27.2275C18.9478 27.2484 18.937 27.2585 18.9169 27.2585ZM17.906 27.2254C17.9197 27.2455 17.9168 27.2563 17.8974 27.2563H17.7778C17.7634 27.2563 17.7498 27.2542 17.7382 27.2491C17.7267 27.2448 17.7166 27.2369 17.7094 27.2254L17.1788 26.4463L16.9621 26.699V27.2254C16.9621 27.2455 16.9513 27.2563 16.9311 27.2563H16.8339C16.813 27.2563 16.803 27.2455 16.803 27.2254V25.6579C16.803 25.6378 16.813 25.627 16.8339 25.627H16.9311C16.9513 25.627 16.9621 25.6378 16.9621 25.6579V26.4967L17.6454 25.6579C17.6662 25.6378 17.6907 25.627 17.7202 25.627H17.8441C17.8527 25.627 17.8585 25.6306 17.8606 25.637C17.8628 25.6428 17.8606 25.65 17.8527 25.6579L17.2825 26.3246L17.906 27.2254ZM16.1031 26.3974C16.052 26.4125 15.9966 26.419 15.9361 26.419H15.7035V25.763H15.931C16.011 25.763 16.0772 25.7688 16.1305 25.781C16.183 25.7926 16.227 25.812 16.2601 25.8394C16.2932 25.8667 16.317 25.902 16.3306 25.9445C16.3443 25.9884 16.3515 26.0402 16.3515 26.1022C16.3515 26.1504 16.3414 26.1943 16.3206 26.2339C16.3004 26.2721 16.2716 26.3052 16.2342 26.3333C16.1974 26.3614 16.1535 26.383 16.1031 26.3974ZM16.232 26.4967C16.2694 26.4787 16.3047 26.4564 16.3393 26.429C16.3738 26.4024 16.4048 26.3714 16.4314 26.3376C16.4581 26.3038 16.479 26.2678 16.4941 26.2282C16.5099 26.1878 16.5171 26.1468 16.5171 26.1022C16.5171 26.0302 16.5078 25.9654 16.4876 25.907C16.4674 25.848 16.4379 25.7976 16.3969 25.7573C16.3566 25.7155 16.3054 25.6838 16.2442 25.6608C16.183 25.6385 16.1103 25.627 16.0268 25.627H15.6085C15.5926 25.627 15.5797 25.627 15.571 25.6277C15.5624 25.6291 15.5552 25.6313 15.5516 25.6356C15.5466 25.6399 15.5444 25.6464 15.5437 25.6558C15.5422 25.6644 15.5422 25.6766 15.5422 25.6932V27.2254C15.5422 27.2455 15.5523 27.2563 15.5732 27.2563H15.6726C15.6934 27.2563 15.7035 27.2455 15.7035 27.2254V26.5579H15.8893C15.9339 26.5565 15.9706 26.555 15.9987 26.5536C16.0275 26.5522 16.0592 26.5478 16.093 26.5399C16.1089 26.5723 16.1326 26.6191 16.1636 26.6796C16.1888 26.7307 16.2234 26.7998 16.268 26.8877C16.3119 26.9748 16.3674 27.0871 16.4336 27.2254C16.4437 27.2455 16.4602 27.2563 16.4818 27.2563H16.597C16.6057 27.2563 16.6114 27.2527 16.615 27.2462C16.6179 27.2398 16.6179 27.2318 16.615 27.2254L16.232 26.4967ZM14.2887 26.6796C14.3506 26.527 14.4111 26.3758 14.4709 26.2267C14.5306 26.0777 14.5918 25.9272 14.653 25.7746C14.715 25.9272 14.7747 26.0777 14.8316 26.2267C14.8885 26.3758 14.9475 26.527 15.0094 26.6796H14.2887ZM14.7682 25.6486C14.761 25.6313 14.7474 25.6226 14.7286 25.6226H14.5933C14.5746 25.6226 14.5616 25.6313 14.5537 25.6486L13.9035 27.2254C13.8963 27.2455 13.9028 27.2563 13.9237 27.2563H14.0274C14.0367 27.2563 14.0439 27.2549 14.0511 27.252C14.0576 27.2484 14.0641 27.2398 14.0691 27.2254C14.0965 27.1562 14.1224 27.0886 14.149 27.0223C14.1757 26.9568 14.203 26.8891 14.2311 26.82H15.0627L15.2262 27.2254C15.2319 27.2398 15.2384 27.2484 15.2449 27.252C15.2514 27.2549 15.2593 27.2563 15.2679 27.2563H15.3738C15.3946 27.2563 15.4018 27.2455 15.3939 27.2254L14.7682 25.6486ZM13.73 25.6306C13.7358 25.6356 13.7379 25.6529 13.7379 25.6838V27.2254C13.7379 27.2455 13.7278 27.2563 13.707 27.2563H13.6076C13.5867 27.2563 13.5766 27.2455 13.5766 27.2254V25.7652C13.4672 26.0352 13.3693 26.2771 13.2822 26.4895C13.2454 26.581 13.2094 26.6695 13.1742 26.7574C13.1382 26.8445 13.1072 26.923 13.0791 26.9906C13.051 27.059 13.028 27.1138 13.0107 27.157C12.9927 27.1994 12.9841 27.2218 12.9841 27.2232C12.9762 27.2376 12.9654 27.2448 12.951 27.2448H12.8516C12.8408 27.2448 12.8336 27.2434 12.8293 27.2398C12.8242 27.2354 12.8214 27.2297 12.8178 27.2232L12.2079 25.7652V27.2254C12.2079 27.2455 12.1971 27.2563 12.177 27.2563H12.0769C12.0567 27.2563 12.0459 27.2455 12.0459 27.2254V25.6838C12.0459 25.6529 12.0488 25.6356 12.0538 25.6306C12.0589 25.6248 12.0769 25.6226 12.1086 25.6226H12.2742C12.2857 25.6226 12.2943 25.6241 12.2994 25.627C12.3044 25.6298 12.3094 25.6378 12.3138 25.6486L12.902 27.0734L13.4722 25.6464C13.4787 25.6306 13.4902 25.6226 13.5082 25.6226H13.676C13.707 25.6226 13.725 25.6248 13.73 25.6306ZM10.3172 26.6796C10.3791 26.527 10.4396 26.3758 10.4994 26.2267C10.5591 26.0777 10.6196 25.9272 10.6822 25.7746C10.7442 25.9272 10.8032 26.0777 10.8601 26.2267C10.917 26.3758 10.976 26.527 11.0379 26.6796H10.3172ZM10.7974 25.6486C10.7895 25.6313 10.7766 25.6226 10.7571 25.6226H10.6225C10.603 25.6226 10.5894 25.6313 10.5829 25.6486L9.932 27.2254C9.9248 27.2455 9.93128 27.2563 9.95216 27.2563H10.0558C10.0652 27.2563 10.0731 27.2549 10.0796 27.252C10.0861 27.2484 10.0926 27.2398 10.0983 27.2254C10.1242 27.1562 10.1516 27.0886 10.1775 27.0223C10.2042 26.9568 10.2315 26.8891 10.2596 26.82H11.0912L11.2546 27.2254C11.2604 27.2398 11.2669 27.2484 11.2734 27.252C11.2798 27.2549 11.2878 27.2563 11.2964 27.2563H11.403C11.4238 27.2563 11.4303 27.2455 11.4231 27.2254L10.7974 25.6486ZM9.83264 27.1476V27.2275C9.83264 27.2484 9.82256 27.2585 9.80168 27.2585H9.01256C8.9816 27.2585 8.9636 27.2556 8.95856 27.2506C8.9528 27.2455 8.95064 27.2275 8.95064 27.1966V25.6795C8.95064 25.6522 8.9528 25.6356 8.95856 25.6306C8.9636 25.6248 8.98016 25.6226 9.00824 25.6226H9.77576C9.79592 25.6226 9.80672 25.6327 9.80672 25.6529V25.7299C9.80672 25.7508 9.79592 25.7609 9.77576 25.7609H9.11192V26.3426H9.74192C9.7628 26.3426 9.77288 26.3527 9.77288 26.3729V26.4521C9.77288 26.473 9.7628 26.483 9.74192 26.483H9.11192V27.1174H9.80168C9.82256 27.1174 9.83264 27.1274 9.83264 27.1476ZM8.27312 26.3974C8.222 26.4125 8.16656 26.419 8.10608 26.419H7.87352V25.763H8.10104C8.18096 25.763 8.24792 25.7688 8.30048 25.781C8.35304 25.7926 8.39696 25.812 8.43008 25.8394C8.4632 25.8667 8.48696 25.902 8.50064 25.9445C8.51432 25.9884 8.52152 26.0402 8.52152 26.1022C8.52152 26.1504 8.51144 26.1943 8.49056 26.2339C8.4704 26.2721 8.4416 26.3052 8.40416 26.3333C8.36744 26.3614 8.32352 26.383 8.27312 26.3974ZM8.402 26.4967C8.43944 26.4787 8.47472 26.4564 8.50928 26.429C8.54384 26.4024 8.5748 26.3714 8.60144 26.3376C8.62808 26.3038 8.64896 26.2678 8.66408 26.2282C8.67992 26.1878 8.68712 26.1468 8.68712 26.1022C8.68712 26.0302 8.67776 25.9654 8.6576 25.907C8.63744 25.848 8.60792 25.7976 8.56688 25.7573C8.52656 25.7155 8.47544 25.6838 8.41424 25.6608C8.35304 25.6385 8.28032 25.627 8.1968 25.627H7.77848C7.76264 25.627 7.74968 25.627 7.74104 25.6277C7.7324 25.6291 7.7252 25.6313 7.7216 25.6356C7.71656 25.6399 7.7144 25.6464 7.71368 25.6558C7.71224 25.6644 7.71224 25.6766 7.71224 25.6932V27.2254C7.71224 27.2455 7.72232 27.2563 7.7432 27.2563H7.84256C7.86344 27.2563 7.87352 27.2455 7.87352 27.2254V26.5579H8.05928C8.10392 26.5565 8.14064 26.555 8.16872 26.5536C8.19752 26.5522 8.2292 26.5478 8.26304 26.5399C8.27888 26.5723 8.30264 26.6191 8.3336 26.6796C8.3588 26.7307 8.39336 26.7998 8.438 26.8877C8.48192 26.9748 8.53736 27.0871 8.6036 27.2254C8.61368 27.2455 8.63024 27.2563 8.65184 27.2563H8.76704C8.77568 27.2563 8.78216 27.2527 8.78504 27.2462C8.78792 27.2398 8.78792 27.2318 8.78504 27.2254L8.402 26.4967ZM7.2788 26.7048C7.25504 26.7869 7.22192 26.8625 7.17944 26.928C7.1276 27 7.0664 27.0547 6.9944 27.0943C6.92312 27.1332 6.84248 27.1526 6.75248 27.1526C6.66392 27.1526 6.58328 27.1332 6.51128 27.0929C6.43928 27.0533 6.37664 26.9986 6.32336 26.928C6.28088 26.8625 6.24776 26.7869 6.224 26.7048C6.20024 26.622 6.18872 26.5342 6.18872 26.4413C6.18872 26.3491 6.20024 26.262 6.224 26.1792C6.24776 26.0971 6.28088 26.0237 6.32336 25.9567C6.3752 25.8847 6.4364 25.83 6.5084 25.7904C6.57968 25.7522 6.66104 25.7321 6.75248 25.7321C6.84248 25.7321 6.92312 25.7522 6.9944 25.7904C7.0664 25.83 7.1276 25.8847 7.17944 25.9567C7.22192 26.0237 7.25504 26.0971 7.2788 26.1792C7.30256 26.262 7.31408 26.3491 7.31408 26.4413C7.31408 26.5342 7.30256 26.622 7.2788 26.7048ZM7.30328 25.8509C7.23704 25.7674 7.15712 25.7033 7.06496 25.6601C6.97352 25.6154 6.86912 25.5938 6.75248 25.5938C6.638 25.5938 6.5336 25.6162 6.44 25.6608C6.34568 25.7054 6.26648 25.7681 6.19952 25.8487C6.14408 25.9258 6.10088 26.0129 6.07136 26.1115C6.04184 26.2094 6.02744 26.3196 6.02744 26.4413C6.02744 26.6983 6.0872 26.9021 6.20816 27.0533C6.33848 27.2117 6.51992 27.2909 6.75248 27.2909C6.98576 27.2909 7.16648 27.2117 7.29464 27.0533C7.412 26.9064 7.47248 26.7026 7.47536 26.4413C7.47752 26.3225 7.46312 26.2138 7.4336 26.1166C7.40408 26.0194 7.36088 25.9308 7.30328 25.8509ZM5.94104 27.2254C5.954 27.2455 5.95184 27.2563 5.9324 27.2563H5.81288C5.79848 27.2563 5.7848 27.2542 5.77256 27.2491C5.76104 27.2448 5.75168 27.2369 5.74448 27.2254L5.21384 26.4463L4.99712 26.699V27.2254C4.99712 27.2455 4.98632 27.2563 4.96544 27.2563H4.86896C4.84808 27.2563 4.838 27.2455 4.838 27.2254V25.6579C4.838 25.6378 4.84808 25.627 4.86896 25.627H4.96544C4.98632 25.627 4.99712 25.6378 4.99712 25.6579V26.4967L5.6804 25.6579C5.70056 25.6378 5.72576 25.627 5.75528 25.627H5.87912C5.88776 25.627 5.89352 25.6306 5.89568 25.637C5.89784 25.6428 5.89496 25.65 5.88776 25.6579L5.31752 26.3246L5.94104 27.2254ZM30.3138 9.53856C30.3735 9.38952 30.434 9.23832 30.4959 9.08568C30.5578 9.23832 30.6176 9.38952 30.6738 9.53856C30.7306 9.6876 30.7897 9.83808 30.8523 9.99072H30.1309C30.1928 9.83808 30.254 9.6876 30.3138 9.53856ZM29.7658 10.5674H29.8702C29.8789 10.5674 29.8868 10.566 29.8933 10.5631C29.9005 10.5602 29.907 10.5516 29.912 10.5365C29.9386 10.4681 29.9653 10.4004 29.9919 10.3342C30.0186 10.2679 30.0459 10.201 30.0733 10.1318H30.9049L31.069 10.5365C31.0748 10.5516 31.0806 10.5602 31.0878 10.5631C31.0942 10.566 31.1022 10.5674 31.1108 10.5674H31.2174C31.2375 10.5674 31.244 10.5574 31.2368 10.5365L30.6111 8.9604C30.6032 8.94312 30.5902 8.93376 30.5708 8.93376H30.4362C30.4174 8.93376 30.4038 8.94312 30.3966 8.9604L29.7464 10.5365C29.7392 10.5574 29.7457 10.5674 29.7658 10.5674ZM28.4187 10.5624C28.413 10.5566 28.4108 10.5386 28.4108 10.5077V8.99136C28.4108 8.96328 28.413 8.94672 28.4187 8.94168C28.4238 8.93664 28.4403 8.93376 28.4677 8.93376H29.2359C29.2561 8.93376 29.2669 8.94384 29.2669 8.96472V9.04176C29.2669 9.06264 29.2561 9.07272 29.2359 9.07272H28.5721V9.65376H29.2021C29.223 9.65376 29.2338 9.66384 29.2338 9.68472V9.76392C29.2338 9.78408 29.223 9.79488 29.2021 9.79488H28.5721V10.4292H29.2618C29.2827 10.4292 29.2928 10.4393 29.2928 10.4594V10.5386C29.2928 10.5595 29.2827 10.5696 29.2618 10.5696H28.4727C28.4418 10.5696 28.4238 10.5667 28.4187 10.5624ZM26.9802 9.07488H27.2077C27.2876 9.07488 27.3538 9.08064 27.4071 9.09288C27.4597 9.1044 27.5036 9.12384 27.5367 9.1512C27.5691 9.17784 27.5936 9.21312 27.6073 9.25632C27.621 9.30024 27.6274 9.35208 27.6274 9.414C27.6274 9.46224 27.6181 9.50616 27.5972 9.54504C27.5763 9.58392 27.5475 9.61704 27.5108 9.64512C27.4741 9.6732 27.4302 9.69408 27.3798 9.7092C27.3279 9.7236 27.2725 9.7308 27.212 9.7308H26.9802V9.07488ZM26.8491 10.5674H26.9492C26.9694 10.5674 26.9802 10.5574 26.9802 10.5365V9.86976H27.1659C27.2098 9.86832 27.2466 9.86688 27.2754 9.86544C27.3042 9.864 27.3351 9.85896 27.369 9.85176C27.3862 9.88416 27.4093 9.93096 27.4402 9.99072C27.4654 10.0418 27.5 10.1117 27.5439 10.1988C27.5886 10.2859 27.6433 10.399 27.7102 10.5365C27.7196 10.5574 27.7362 10.5674 27.7585 10.5674H27.873C27.8823 10.5674 27.8881 10.5638 27.8917 10.5574C27.8946 10.5509 27.8946 10.5437 27.8917 10.5365L27.5086 9.80784C27.5454 9.79056 27.5814 9.76824 27.6159 9.74088C27.6505 9.71352 27.6814 9.68328 27.7081 9.64944C27.734 9.6156 27.7549 9.57888 27.7707 9.53928C27.7858 9.49968 27.7938 9.45792 27.7938 9.414C27.7938 9.342 27.7837 9.27648 27.7642 9.21816C27.7441 9.15912 27.7138 9.10944 27.6735 9.0684C27.6325 9.02736 27.5821 8.99496 27.5209 8.97264C27.4597 8.9496 27.3877 8.9388 27.3027 8.9388H26.8851C26.8693 8.9388 26.8563 8.9388 26.8477 8.93952C26.839 8.94024 26.8318 8.94312 26.8275 8.94744C26.8232 8.95176 26.8203 8.95824 26.8196 8.96688C26.8189 8.97552 26.8182 8.98848 26.8182 9.00432V10.5365C26.8182 10.5574 26.829 10.5674 26.8491 10.5674ZM24.9771 9.49104C25.0002 9.40896 25.0333 9.3348 25.0765 9.26856C25.1276 9.19656 25.1895 9.14112 25.2608 9.10224C25.3321 9.06336 25.4134 9.04392 25.5049 9.04392C25.5949 9.04392 25.6762 9.06336 25.7475 9.10224C25.8188 9.14112 25.8807 9.19656 25.9318 9.26856C25.975 9.3348 26.0074 9.40896 26.0319 9.49104C26.055 9.57312 26.0672 9.66024 26.0672 9.75312C26.0672 9.84528 26.055 9.93312 26.0319 10.0159C26.0074 10.0987 25.975 10.1736 25.9318 10.2391C25.8807 10.3111 25.8188 10.3673 25.7475 10.4054C25.6762 10.4443 25.5949 10.4638 25.5049 10.4638C25.4163 10.4638 25.3364 10.4443 25.2637 10.4047C25.1924 10.3651 25.1298 10.3097 25.0765 10.2391C25.0333 10.1736 25.0002 10.0987 24.9771 10.0159C24.9534 9.93312 24.9411 9.84528 24.9411 9.75312C24.9411 9.66024 24.9534 9.57312 24.9771 9.49104ZM25.5049 10.6027C25.7374 10.6027 25.9182 10.5235 26.047 10.3651C26.1644 10.2182 26.2249 10.0145 26.2285 9.75312C26.2299 9.6336 26.2162 9.52632 26.1867 9.4284C26.1572 9.33048 26.1133 9.24264 26.0557 9.16272C25.9894 9.0792 25.9102 9.01512 25.8181 8.9712C25.7259 8.92728 25.6215 8.90568 25.5049 8.90568C25.3904 8.90568 25.286 8.928 25.1924 8.97264C25.0988 9.01728 25.0182 9.07992 24.9526 9.16056C24.8965 9.23688 24.854 9.32472 24.8245 9.42264C24.795 9.52128 24.7798 9.63144 24.7798 9.75312C24.7798 10.0094 24.8403 10.2139 24.9613 10.3651C25.0909 10.5235 25.2723 10.6027 25.5049 10.6027ZM23.2369 10.5365V8.96904C23.2369 8.94888 23.247 8.9388 23.2678 8.9388H23.365C23.3852 8.9388 23.396 8.94888 23.396 8.96904V9.80784L24.0793 8.96904C24.0994 8.94888 24.1246 8.9388 24.1542 8.9388H24.278C24.2866 8.9388 24.2924 8.94168 24.2946 8.94816C24.2967 8.95464 24.2946 8.96184 24.2866 8.96904L23.7164 9.63576L24.3399 10.5365C24.3536 10.5574 24.3507 10.5674 24.3306 10.5674H24.211C24.1974 10.5674 24.1837 10.5653 24.1722 10.561C24.1599 10.5566 24.1498 10.5487 24.1434 10.5365L23.612 9.75744L23.396 10.0102V10.5365C23.396 10.5574 23.3852 10.5674 23.365 10.5674H23.2678C23.247 10.5674 23.2369 10.5574 23.2369 10.5365ZM21.0186 10.5365V9.00216C21.0186 8.96976 21.0214 8.95104 21.0265 8.946C21.0315 8.94096 21.0502 8.9388 21.0826 8.9388H21.8214C21.8415 8.9388 21.8523 8.94888 21.8523 8.96904V9.04392C21.8523 9.0648 21.8415 9.07488 21.8214 9.07488H21.182V9.65808H21.7904C21.8106 9.65808 21.8214 9.66888 21.8214 9.68904V9.76824C21.8214 9.78912 21.8106 9.7992 21.7904 9.7992H21.182V10.5365C21.182 10.5574 21.1719 10.5674 21.151 10.5674H21.0495C21.0286 10.5674 21.0186 10.5574 21.0186 10.5365ZM19.2034 9.49104C19.2272 9.40896 19.2596 9.3348 19.3028 9.26856C19.3539 9.19656 19.4158 9.14112 19.4871 9.10224C19.5584 9.06336 19.6405 9.04392 19.7319 9.04392C19.8219 9.04392 19.9026 9.06336 19.9738 9.10224C20.0451 9.14112 20.107 9.19656 20.1582 9.26856C20.2014 9.3348 20.2345 9.40896 20.2582 9.49104C20.2813 9.57312 20.2935 9.66024 20.2935 9.75312C20.2935 9.84528 20.2813 9.93312 20.2582 10.0159C20.2345 10.0987 20.2014 10.1736 20.1582 10.2391C20.107 10.3111 20.0451 10.3673 19.9738 10.4054C19.9026 10.4443 19.8219 10.4638 19.7319 10.4638C19.6434 10.4638 19.5627 10.4443 19.4907 10.4047C19.418 10.3651 19.3554 10.3097 19.3028 10.2391C19.2596 10.1736 19.2272 10.0987 19.2034 10.0159C19.1797 9.93312 19.1674 9.84528 19.1674 9.75312C19.1674 9.66024 19.1797 9.57312 19.2034 9.49104ZM19.7319 10.6027C19.9645 10.6027 20.1452 10.5235 20.2734 10.3651C20.3914 10.2182 20.4519 10.0145 20.4548 9.75312C20.4562 9.6336 20.4418 9.52632 20.413 9.4284C20.3835 9.33048 20.3396 9.24264 20.282 9.16272C20.2165 9.0792 20.1366 9.01512 20.0444 8.9712C19.9522 8.92728 19.8486 8.90568 19.7319 8.90568C19.6167 8.90568 19.5123 8.928 19.4187 8.97264C19.3251 9.01728 19.2452 9.07992 19.179 9.16056C19.1228 9.23688 19.0803 9.32472 19.0508 9.42264C19.0213 9.52128 19.0062 9.63144 19.0062 9.75312C19.0062 10.0094 19.0666 10.2139 19.1876 10.3651C19.3172 10.5235 19.4986 10.6027 19.7319 10.6027ZM16.7518 10.5624C16.7468 10.5566 16.7439 10.5386 16.7439 10.5077V8.99136C16.7439 8.96328 16.7468 8.94672 16.7518 8.94168C16.7569 8.93664 16.7734 8.93376 16.8015 8.93376H17.569C17.5899 8.93376 17.6 8.94384 17.6 8.96472V9.04176C17.6 9.06264 17.5899 9.07272 17.569 9.07272H16.9059V9.65376H17.5359C17.5568 9.65376 17.5669 9.66384 17.5669 9.68472V9.76392C17.5669 9.78408 17.5568 9.79488 17.5359 9.79488H16.9059V10.4292H17.5957C17.6166 10.4292 17.6266 10.4393 17.6266 10.4594V10.5386C17.6266 10.5595 17.6166 10.5696 17.5957 10.5696H16.8058C16.7749 10.5696 16.7569 10.5667 16.7518 10.5624ZM15.0656 9.07488H15.3046C15.5055 9.07488 15.6632 9.12384 15.7777 9.22248C15.908 9.33408 15.9728 9.50616 15.9728 9.73944C15.9728 10.1995 15.7158 10.4292 15.201 10.4292H15.0656V9.07488ZM14.9641 10.5674H15.1923C15.3349 10.5674 15.463 10.5516 15.5768 10.5192C15.6898 10.4868 15.787 10.4407 15.8662 10.3802C15.9505 10.3097 16.016 10.2211 16.0628 10.1138C16.1103 10.0073 16.1341 9.88488 16.1341 9.7488C16.1341 9.49896 16.0707 9.30456 15.944 9.1656C15.8022 9.0144 15.5912 8.9388 15.3118 8.9388H14.9641C14.9331 8.9388 14.9151 8.94096 14.9101 8.946C14.905 8.95104 14.9022 8.96904 14.9022 9V10.5055C14.9022 10.5365 14.905 10.5545 14.9101 10.5602C14.9151 10.5646 14.9331 10.5674 14.9641 10.5674ZM14.1375 10.5365V8.96904C14.1375 8.94888 14.1476 8.9388 14.1685 8.9388H14.2743C14.2952 8.9388 14.3053 8.94888 14.3053 8.96904V10.5365C14.3053 10.5574 14.2952 10.5674 14.2743 10.5674H14.1685C14.1476 10.5674 14.1375 10.5574 14.1375 10.5365ZM12.7285 9.07488H12.9567C13.0359 9.07488 13.1022 9.08064 13.1554 9.09288C13.2087 9.1044 13.2519 9.12384 13.285 9.1512C13.3174 9.17784 13.3419 9.21312 13.3556 9.25632C13.3693 9.30024 13.3765 9.35208 13.3765 9.414C13.3765 9.46224 13.3664 9.50616 13.3455 9.54504C13.3246 9.58392 13.2966 9.61704 13.2591 9.64512C13.2224 9.6732 13.1785 9.69408 13.1274 9.7092C13.077 9.7236 13.0215 9.7308 12.961 9.7308H12.7285V9.07488ZM12.5982 10.5674H12.6975C12.7184 10.5674 12.7285 10.5574 12.7285 10.5365V9.86976H12.9142C12.9582 9.86832 12.9949 9.86688 13.0237 9.86544C13.0525 9.864 13.0842 9.85896 13.118 9.85176C13.1338 9.88416 13.1576 9.93096 13.1886 9.99072C13.2138 10.0418 13.2483 10.1117 13.2922 10.1988C13.3369 10.2859 13.3923 10.399 13.4586 10.5365C13.4686 10.5574 13.4845 10.5674 13.5068 10.5674H13.622C13.6306 10.5674 13.6364 10.5638 13.64 10.5574C13.6429 10.5509 13.6429 10.5437 13.64 10.5365L13.2577 9.80784C13.2937 9.79056 13.3297 9.76824 13.3642 9.74088C13.3988 9.71352 13.4298 9.68328 13.4564 9.64944C13.4823 9.6156 13.5039 9.57888 13.519 9.53928C13.5349 9.49968 13.5428 9.45792 13.5428 9.414C13.5428 9.342 13.5327 9.27648 13.5126 9.21816C13.4924 9.15912 13.4622 9.10944 13.4218 9.0684C13.3815 9.02736 13.3304 8.99496 13.2692 8.97264C13.208 8.9496 13.136 8.9388 13.0518 8.9388H12.6334C12.6169 8.9388 12.6046 8.9388 12.596 8.93952C12.5874 8.94024 12.5809 8.94312 12.5758 8.94744C12.5715 8.95176 12.5686 8.95824 12.5679 8.96688C12.5679 8.97552 12.5672 8.98848 12.5672 9.00432V10.5365C12.5672 10.5574 12.5773 10.5674 12.5982 10.5674ZM11.2273 9.07272H11.5592C11.665 9.07272 11.745 9.1008 11.8004 9.15696C11.8544 9.21384 11.8818 9.29448 11.8818 9.39816C11.8774 9.4716 11.863 9.52992 11.84 9.57384C11.8162 9.61704 11.7838 9.65016 11.7435 9.67392C11.7032 9.69696 11.6542 9.7128 11.5974 9.72C11.5412 9.7272 11.4771 9.7308 11.4066 9.7308H11.2273V9.07272ZM11.097 10.5674H11.1963C11.2172 10.5674 11.2273 10.5574 11.2273 10.5365V9.86976H11.5081C11.583 9.87264 11.6535 9.864 11.7205 9.84312C11.7867 9.82296 11.8443 9.792 11.8926 9.75168C11.9415 9.71136 11.9797 9.66168 12.007 9.60192C12.0337 9.54288 12.0474 9.47448 12.0474 9.39816C12.0474 9.24696 12.0006 9.13176 11.9062 9.0504C11.8148 8.97336 11.6881 8.93376 11.5261 8.93376H11.1322C11.1013 8.93376 11.0826 8.93664 11.0761 8.94312C11.0689 8.94888 11.066 8.9676 11.066 9V10.5365C11.066 10.5574 11.0761 10.5674 11.097 10.5674ZM8.73824 10.5624C8.7332 10.5566 8.73032 10.5386 8.73032 10.5077V8.99136C8.73032 8.96328 8.7332 8.94672 8.73824 8.94168C8.74328 8.93664 8.75984 8.93376 8.78792 8.93376H9.55544C9.57632 8.93376 9.5864 8.94384 9.5864 8.96472V9.04176C9.5864 9.06264 9.57632 9.07272 9.55544 9.07272H8.89232V9.65376H9.52232C9.5432 9.65376 9.55328 9.66384 9.55328 9.68472V9.76392C9.55328 9.78408 9.5432 9.79488 9.52232 9.79488H8.89232V10.4292H9.58208C9.60296 10.4292 9.61304 10.4393 9.61304 10.4594V10.5386C9.61304 10.5595 9.60296 10.5696 9.58208 10.5696H8.79224C8.76128 10.5696 8.74328 10.5667 8.73824 10.5624ZM6.90656 10.5365V8.96472C6.90656 8.94384 6.91664 8.93376 6.93752 8.93376H7.03688C7.05776 8.93376 7.06784 8.94384 7.06784 8.96472V9.65592H7.90592V8.96472C7.90592 8.94384 7.916 8.93376 7.93688 8.93376H8.03624C8.05712 8.93376 8.0672 8.94384 8.0672 8.96472V10.5365C8.0672 10.5574 8.05712 10.5674 8.03624 10.5674H7.93688C7.916 10.5674 7.90592 10.5574 7.90592 10.5365V9.79488H7.06784V10.5365C7.06784 10.5574 7.05776 10.5674 7.03688 10.5674H6.93752C6.91664 10.5674 6.90656 10.5574 6.90656 10.5365ZM5.29664 9.04392V8.96904C5.29664 8.94888 5.30672 8.9388 5.3276 8.9388H6.40688C6.42704 8.9388 6.43784 8.94888 6.43784 8.96904V9.04392C6.43784 9.0648 6.42704 9.07488 6.40688 9.07488H5.9468V10.5365C5.9468 10.5574 5.93672 10.5674 5.91584 10.5674H5.81432C5.79344 10.5674 5.78336 10.5574 5.78336 10.5365V9.07488H5.3276C5.30672 9.07488 5.29664 9.0648 5.29664 9.04392ZM35.7296 28.039L18.6152 35.946L1.26968 28.2391V7.96176L18.3848 0.054L35.7296 7.7616V28.039ZM18.3942 0.00432L18.3841 0L1.2344 7.9236L1.22 7.93008V28.2708L18.6058 35.995L18.6159 36L35.7656 28.0778L35.78 28.0706V7.72992L18.3942 0.00432ZM18.5245 29.723V32.6614C18.5245 32.675 18.5137 32.6866 18.5 32.6866C18.4863 32.6866 18.4748 32.675 18.4748 32.6614V29.723C18.4748 29.7101 18.4863 29.6986 18.5 29.6986C18.5137 29.6986 18.5245 29.7101 18.5245 29.723ZM18.4748 6.65712V3.7188C18.4748 3.70512 18.4863 3.6936 18.5 3.6936C18.5137 3.6936 18.5245 3.70512 18.5245 3.7188V6.65712C18.5245 6.6708 18.5137 6.6816 18.5 6.6816C18.4863 6.6816 18.4748 6.6708 18.4748 6.65712ZM4.77536 24.6787H32.2232V24.6298H4.77536V24.6787ZM4.77536 11.677H32.2232V11.6273H4.77536V11.677ZM2.26976 8.54496L18.3906 1.09728L34.7302 8.35776V27.455L18.6087 34.9034L2.26976 27.6437V8.54496ZM2.1704 8.48232V27.7078L18.5886 35.0021L18.6094 35.0114L34.8001 27.5314L34.8289 27.5184V8.29296L18.4107 0.9972L18.3898 0.98856L2.1992 8.46864L2.1704 8.48232Z" fill="#6E6F73"/>
</svg>
