<svg width="48" height="36" viewBox="0 0 48 36" fill="none" xmlns="http://www.w3.org/2000/svg">
<path fill-rule="evenodd" clip-rule="evenodd" d="M39.6928 14.6388C40.2065 14.53 40.7168 14.4548 41.2175 14.4295C45.725 14.2045 47.7907 17.6313 45.8324 22.0828C43.8748 26.5356 38.6326 30.3256 34.1251 30.55C32.6428 30.6246 31.4301 30.2962 30.5327 29.6738L30.5252 29.6909C27.9075 27.7018 25.3671 28.6061 21.9759 30.5644C18.6817 32.3968 15.1714 33.5466 11.865 33.7114C3.07968 34.1485 -0.948398 27.4693 2.86969 18.7934C6.68641 10.1155 16.9026 2.72625 25.6893 2.28849C33.032 1.92186 37.0478 6.52929 35.9411 13.1183L35.9438 13.1169C35.9416 13.1247 35.9402 13.1321 35.9387 13.1396C35.9369 13.1484 35.9352 13.1572 35.9322 13.1668C35.9095 13.3025 35.8821 13.4404 35.8549 13.5775L35.8481 13.6121C35.6144 15.4895 37.5515 15.0824 39.4115 14.6914C39.5065 14.6715 39.6013 14.6515 39.6956 14.632L39.6928 14.6388ZM26.5388 19.1403C26.5388 19.1403 26.1208 19.156 26.1147 19.156C25.8445 19.1594 25.5661 19.2716 25.3527 19.4932C25.1755 19.6772 25.0716 19.8817 25.0853 20.1403C25.101 20.4399 25.2091 20.944 25.4102 21.5055C25.6249 22.1047 25.811 22.7326 25.8165 23.169C25.8206 23.4214 25.7501 23.6649 25.601 23.8893C25.4546 24.1184 25.2275 24.2908 24.9307 24.4002C24.6461 24.5056 24.1612 24.5589 23.8773 24.5589C23.2337 24.5589 22.9047 24.3818 22.8992 24.0343C22.8965 23.8906 22.9211 23.8257 23.0155 23.7231C23.1071 23.6184 23.285 23.5904 23.3753 23.5904C23.458 23.5904 23.5326 23.617 23.5921 23.6649C23.8014 23.8113 24.1106 23.8852 24.2727 23.8852C24.4307 23.8852 24.6407 23.8284 24.7556 23.7142C24.8643 23.6068 24.9416 23.3961 24.932 23.1902C24.9149 22.8263 24.7433 22.2921 24.5223 21.7018C24.3034 21.1198 24.2248 20.7422 24.2145 20.4118C24.2104 20.0732 24.3431 19.7401 24.577 19.4043C24.8226 19.0527 25.2734 18.7217 25.7323 18.513C26.1783 18.3085 26.4834 18.1779 26.6974 18.1779C26.9697 18.1779 27.127 18.3325 27.1325 18.602C27.1338 18.7299 27.0695 18.8557 26.9492 18.9549L26.9428 18.9601C26.8484 19.0369 26.7214 19.1403 26.5388 19.1403ZM39.361 23.0083C39.4171 22.9378 39.4787 22.9248 39.5197 22.9248C39.6011 22.9248 39.6852 22.9782 39.6955 23.0986L39.6955 23.0989C39.6996 23.1593 39.7104 23.3169 39.214 23.8065C38.8624 24.154 38.4014 24.5507 37.967 24.5507C37.8576 24.5507 37.6975 24.509 37.5662 24.3147C37.4752 24.18 37.4205 24.0062 37.4048 23.8004C37.3966 23.68 37.4103 23.4953 37.4492 23.2388C37.4483 23.2394 37.447 23.2404 37.4459 23.2414C37.4446 23.2425 37.4435 23.2438 37.4431 23.2449C36.9992 23.7258 36.6148 24.0657 36.3022 24.2566C35.9718 24.4556 35.7126 24.5521 35.5087 24.5521C35.2994 24.5521 35.0416 24.4372 34.9992 23.8906C34.9957 23.8441 34.9937 23.7942 34.9937 23.7443C34.9937 23.5828 35.0121 23.3988 35.0477 23.1943C35.0477 23.1943 35.0696 23.076 35.0874 22.9782C34.8726 23.2484 34.5963 23.5404 34.2577 23.8537C33.7707 24.3031 33.3979 24.522 33.1175 24.522C32.9923 24.522 32.8753 24.4461 32.7741 24.2969C32.6859 24.1677 32.6346 24.0117 32.6229 23.8311C32.599 23.5404 32.6982 23.0616 32.9253 22.3701C33.1482 21.6861 33.309 21.2682 33.4136 21.0958C33.5388 20.8879 33.6695 20.788 33.811 20.788C33.9314 20.788 34.0484 20.827 34.1606 20.905C34.2823 20.9912 34.3487 21.0938 34.3576 21.2121C34.3624 21.273 34.3391 21.3592 34.2037 21.6218C34.0997 21.8209 34.0149 21.9529 33.9431 22.0254C33.8665 22.0977 33.8464 22.1335 33.8431 22.1395C33.8426 22.1404 33.8424 22.1406 33.8425 22.1403L33.653 22.7278C33.5354 23.1027 33.5067 23.2935 33.5067 23.3927C33.5067 23.4043 33.5067 23.4146 33.508 23.4235C33.5125 23.491 33.5274 23.5108 33.5302 23.5145C33.5304 23.5148 33.5306 23.515 33.5306 23.5151C33.5327 23.5151 33.5409 23.5158 33.5409 23.5158C33.6093 23.5158 33.824 23.4467 34.3521 22.8133C34.7618 22.3195 35.1585 21.7203 35.5306 21.0274C35.6216 20.8605 35.7666 20.6362 35.9718 20.6362C36.073 20.6362 36.1695 20.684 36.2611 20.7784C36.348 20.8687 36.3952 20.9672 36.4034 21.0705V21.0958C36.4034 21.1676 36.3808 21.288 36.2584 21.5527C36.1291 21.8742 36.0142 22.2579 35.9198 22.6971C35.822 23.1601 35.7974 23.3975 35.7974 23.5199C35.7974 23.5391 35.7974 23.5555 35.7994 23.5698C35.8064 23.6577 35.8274 23.6819 35.831 23.6861C35.8313 23.6865 35.8315 23.6867 35.8316 23.6868H35.8405C35.8979 23.6868 36.084 23.6424 36.5559 23.2272C36.9226 22.9036 37.3077 22.5069 37.6948 22.0534C37.6975 22.0507 37.6996 22.0486 37.701 22.0452C37.8083 21.6512 37.9499 21.2012 38.1244 20.6998C38.4068 19.8851 38.6264 19.2935 38.7796 18.9426C39.0026 18.4289 39.0676 18.3516 39.1175 18.3147C39.1866 18.2627 39.2564 18.2374 39.3275 18.2374C39.4137 18.2374 39.5395 18.2682 39.6415 18.4125C39.7099 18.5103 39.7502 18.6102 39.7571 18.7073C39.7653 18.8208 39.7276 18.9679 39.6421 19.1594C39.2372 20.0226 38.8966 20.9207 38.6257 21.8304C38.294 22.9515 38.2406 23.4002 38.255 23.5794C38.2591 23.6294 38.2714 23.7155 38.3008 23.7155C38.428 23.7155 38.688 23.6184 38.885 23.4618C39.0984 23.2921 39.2577 23.1403 39.361 23.0083ZM28.073 21.7415C28.073 21.8715 28.0039 21.9994 27.8582 22.1328C27.7022 22.2764 27.5265 22.3441 27.3213 22.3489C27.3479 22.2764 27.4095 22.1444 27.5456 21.8968C27.772 21.4878 27.8938 21.4768 27.9068 21.4768C27.9286 21.4768 27.9622 21.4816 28.0059 21.5302C28.0442 21.5726 28.0668 21.6334 28.073 21.7135V21.7415ZM31.6578 22.1574C31.6578 22.4324 31.5361 22.7723 31.2926 23.1718C31.0436 23.5842 30.7843 23.7935 30.5244 23.7935C30.4875 23.7935 30.4581 23.7805 30.4307 23.747C30.3945 23.708 30.3753 23.6512 30.3698 23.5767C30.3432 23.2367 30.4745 22.8044 30.7584 22.2908C31.1476 21.5897 31.322 21.5534 31.3521 21.5534C31.4184 21.5534 31.6134 21.5534 31.6551 22.0917C31.6571 22.1129 31.6578 22.1341 31.6578 22.1574ZM32.4759 22.2101C32.4759 22.1834 32.4759 22.1567 32.4725 22.1314C32.4328 21.6143 32.2201 21.2319 31.8404 20.9939C31.8404 20.9877 31.8302 20.9371 31.8302 20.9371C31.811 20.6923 31.6544 20.5527 31.3979 20.5527C31.2194 20.5527 31.0744 20.6286 30.98 20.7743C30.9622 20.7969 30.9355 20.8236 30.8678 20.8236C30.7214 20.8236 30.5935 20.8783 30.4957 20.9836C30.3979 21.0869 30.3534 21.2066 30.363 21.338C30.3678 21.4146 30.3445 21.4864 30.2898 21.5623C30.1469 21.7743 30.0251 21.9713 29.9246 22.1519C29.8657 22.1642 29.8083 22.1991 29.7577 22.2593C29.3213 22.7579 28.8897 23.1389 28.4752 23.3934C28.0702 23.641 27.7111 23.7668 27.4095 23.7668C27.1831 23.7668 27.0791 23.6656 27.0606 23.4296C27.0593 23.4146 27.0579 23.3961 27.0579 23.3804C27.0579 23.3024 27.0695 23.2073 27.0928 23.0986C27.099 23.0698 27.1044 23.048 27.1099 23.0274C27.1858 23.0664 27.2638 23.0917 27.3472 23.0917C27.7823 23.0917 28.1585 22.9303 28.4663 22.6088C28.7467 22.3161 28.8883 21.9884 28.8883 21.6362C28.8883 21.602 28.8869 21.5664 28.8856 21.5329C28.8705 21.3551 28.8083 21.2066 28.6995 21.0944C28.5887 20.9789 28.4505 20.9166 28.2891 20.9077C28.2879 20.9077 28.2866 20.9075 28.2851 20.9072C28.2832 20.9068 28.2809 20.9064 28.2782 20.9064C28.2371 20.7347 28.1024 20.6362 27.9033 20.6362C27.6735 20.6362 27.4184 20.8195 27.099 21.2121C26.8062 21.5719 26.5764 21.9823 26.4156 22.4324C26.2508 22.892 26.1817 23.2538 26.2029 23.5404C26.2255 23.8393 26.3329 24.0863 26.5223 24.2737C26.7139 24.4645 26.9362 24.5623 27.1838 24.5623C27.5265 24.5623 27.9177 24.4577 28.3438 24.2504L28.3445 24.2491C28.7378 24.0589 29.1256 23.775 29.5025 23.4043C29.4847 23.5418 29.4806 23.6677 29.4888 23.7778C29.5032 23.9789 29.5908 24.1608 29.7447 24.3216C29.904 24.485 30.0702 24.5685 30.2371 24.5685C30.6209 24.5685 31.0176 24.4139 31.4198 24.1095C31.8179 23.8086 32.1004 23.459 32.2604 23.0698C32.4047 22.7217 32.4759 22.4371 32.4759 22.2101ZM16.7199 13.1129C16.6057 14.4268 17.0346 15.1744 18.1091 15.5411C18.618 15.7127 18.5832 16.011 18.5592 16.0985C18.4894 16.3625 18.1481 16.5274 17.7972 16.4651C16.3034 16.2038 15.2466 14.8796 15.2466 13.3304C15.2466 13.2408 15.25 13.1518 15.2575 13.0616C15.2767 12.8174 15.4197 12.6176 15.6481 12.5089C15.9128 12.3851 16.2418 12.4035 16.4648 12.5561C16.6481 12.6819 16.7384 12.8796 16.7199 13.1129ZM27.6674 8.73731C28.1386 8.56357 28.7159 8.65523 29.0395 8.95208C29.2953 9.18601 29.376 9.52391 29.2638 9.90147C27.9341 14.3981 26.1222 16.4638 22.575 17.5253C22.0196 17.6909 21.7261 17.4952 21.6441 17.277C21.5442 17.0089 21.72 16.6211 22.2494 16.394C24.0469 15.6238 26.495 14.0725 27.01 9.51501C27.049 9.15797 27.2905 8.87411 27.6674 8.73731ZM20.8903 22.1704C20.986 22.0452 21.09 22.0192 21.1611 22.0192C21.2973 22.0192 21.4416 22.1081 21.4594 22.3127C21.4696 22.4371 21.4245 22.6533 20.9915 23.2203C20.6953 23.6082 20.4183 23.8154 20.0599 24.0671C19.6085 24.3859 19.1078 24.576 18.7186 24.576C18.432 24.576 18.1591 24.4194 17.9094 24.1109C17.6762 23.8222 17.5469 23.5185 17.523 23.206L17.5483 22.8393L17.566 22.7107C17.8095 20.5917 18.0195 19.6375 19.038 16.9617C19.2487 16.4125 19.7275 16.0855 20.3212 16.0855C20.4532 16.0855 20.5804 16.1512 20.7227 16.2928C20.8568 16.4262 20.9313 16.5903 20.9457 16.7818C20.958 16.9398 20.9108 17.0773 20.8581 17.2025C19.7863 19.7312 19.1687 21.249 18.9511 23.0274C18.947 23.0534 18.9443 23.1006 18.9648 23.1232C18.9833 23.143 19.0271 23.156 19.0784 23.156C19.4436 23.156 19.7391 23.0904 20.0113 22.9488C20.3335 22.7798 20.6208 22.5254 20.8903 22.1704ZM21.1967 13.2209C21.3876 13.2558 21.5387 13.3495 21.6345 13.4952C21.7596 13.6874 21.7795 13.9555 21.6899 14.2941C21.5544 14.8119 21.4149 15.1614 21.1064 15.409H21.1051C20.865 15.6033 20.6434 15.6779 20.4258 15.6396C20.1926 15.5985 20.0298 15.3967 20.0284 15.1519C20.0243 14.686 20.1062 14.2843 20.1657 13.9923L20.1659 13.9911L20.1789 13.9227L20.181 13.8981C20.181 13.8981 20.194 13.7934 20.1967 13.7914C20.2993 13.3974 20.748 13.1416 21.1967 13.2209ZM17.0065 19.7394C17.0065 19.7312 17.0065 19.723 17.0058 19.7148C16.9976 19.5828 16.8937 19.4446 16.6775 19.4446C16.6638 19.446 16.3731 19.4624 16.3731 19.4624L16.0934 19.4631L16.0045 19.4617C16.0537 19.2422 16.1283 18.9241 16.1679 18.8044L16.2268 18.6676L16.3595 18.3434L16.3991 18.2169L16.4059 18.1954C16.4736 17.98 16.5332 17.7903 16.5332 17.6122C16.5332 17.5924 16.5325 17.5725 16.5305 17.5534C16.5168 17.3687 16.445 17.2011 16.3191 17.052C16.1755 16.8872 16.0127 16.8044 15.8335 16.8044C15.6693 16.8044 15.4313 16.8591 15.2343 17.1238C15.0756 17.3359 14.8383 18.1786 14.7712 18.4768L14.6727 18.8728C14.6727 18.8728 14.5681 19.2907 14.5489 19.3591C14.5428 19.3591 14.5339 19.3605 14.5339 19.3605H11.2924C11.343 19.2039 11.4388 18.9104 11.4388 18.9104L11.9443 17.3742L12.6351 15.4857C12.6727 15.3632 12.6912 15.2408 12.6912 15.1129C12.6912 15.0794 12.6898 15.0438 12.6871 15.0089C12.6672 14.7551 12.5653 14.5465 12.3854 14.3837C12.2049 14.2223 12.0215 14.1402 11.843 14.1402C11.6337 14.1402 11.3499 14.2517 11.1884 14.7811L10.0721 18.4145C9.85531 19.1136 9.77871 19.3338 9.75066 19.4043C9.73561 19.4104 9.70552 19.4248 9.70552 19.4248C9.56119 19.4761 9.40798 19.5548 9.25066 19.6594C9.17405 19.71 8.94628 19.8626 8.94628 20.0903C8.94628 20.0952 8.94681 20.0999 8.94733 20.1045C8.94784 20.109 8.94833 20.1133 8.94833 20.1177C8.96338 20.3085 9.10633 20.459 9.3471 20.5767C9.29512 20.7422 9.08376 21.5486 8.91071 22.2299C8.74039 22.8941 8.65763 23.4091 8.65763 23.7969C8.65763 23.8585 8.659 23.9173 8.66242 23.9748C8.71098 24.5958 9.04341 24.6875 9.23698 24.6875C9.56598 24.6875 9.87515 24.4891 10.1843 24.0801C10.4682 23.7053 10.6029 23.4235 10.6029 23.1978C10.6029 23.1841 10.6029 23.169 10.6002 23.1547C10.5804 22.8941 10.4319 22.7107 10.1959 22.6328C10.2089 22.5452 10.2514 22.3455 10.3964 21.9084L10.462 21.7032C10.4689 21.6822 10.4761 21.6603 10.4836 21.6376C10.5966 21.2933 10.7635 20.7851 10.8129 20.6998C10.856 20.6286 10.8827 20.617 10.8827 20.617C10.8827 20.617 13.5585 20.5657 14.2548 20.5527C14.1748 20.8626 14.0168 21.5445 13.8786 22.2155C13.6214 23.4465 13.6173 23.5287 13.6153 23.5706L13.6153 23.5712L13.6173 23.8031C13.6693 24.4632 13.9477 24.6041 14.1734 24.6041C14.5092 24.6041 14.8369 24.2846 15.2028 23.6027C15.6105 22.8407 15.6823 22.5445 15.6823 22.3852C15.6823 22.3747 15.6816 22.3655 15.681 22.3568C15.6807 22.353 15.6805 22.3492 15.6803 22.3455C15.6611 22.1013 15.525 21.9823 15.3745 21.9406C15.3957 21.8298 15.4477 21.5774 15.5797 21.0172L15.6803 20.5917L15.7288 20.3845C16.0339 20.353 16.2411 20.3037 16.5147 20.195C16.7452 20.1013 17.0065 19.9679 17.0065 19.7394Z" fill="#8B8D92"/>
</svg>
