<svg width="27" height="36" viewBox="0 0 27 36" fill="none" xmlns="http://www.w3.org/2000/svg">
<path fill-rule="evenodd" clip-rule="evenodd" d="M21.9492 14.8591C21.9492 14.8591 21.9492 12.149 20.0254 9.53538C18.7805 7.84266 16.416 6.25722 13.3992 5.82666C9.86976 5.32266 7.02072 5.45658 7.02072 5.45658H5.72616V13.3406H7.146V7.49562L7.41888 7.46754C7.6464 7.44306 13.0536 6.91242 16.6457 9.31434C20.1254 11.6414 20.0952 15.2666 20.0808 17.009L20.0786 17.2833C20.0786 18.3979 20.0736 21.8157 20.07 23.5559H21.9492V14.8591ZM19.471 17.2833C19.471 18.3979 19.4645 21.8164 19.4609 23.5559H17.4622V16.8751C17.4622 9.6729 9.17784 9.98034 9.17784 9.98034V13.3406H7.7544V8.05722C8.89416 7.98306 13.343 7.84266 16.3087 9.82626C19.5142 11.969 19.4854 15.3695 19.4724 17.0039L19.471 17.2833ZM17.2757 30.5594L15.6658 25.4668H14.0321L12.3905 30.5594H13.613L13.8391 29.8027L14.3186 28.1704L14.7629 26.4475H14.7794L15.2057 28.0135L15.6362 29.4304H15.6413L15.7543 29.8199L15.755 29.8221L15.9696 30.5594H17.2757ZM20.6993 25.4668H22.0615L20.4034 27.7528L22.0615 30.5594H20.6662L19.2456 27.9501H19.2298V30.5594H17.9899V25.4668H19.2298V27.647H19.2456L20.6993 25.4668ZM5.77224 30.5594V25.4668H7.76808L8.69544 28.93H8.712L9.69696 25.4668H11.6266V30.5594H10.4198V26.6318H10.4033L9.26208 30.5594H8.07984L6.99624 26.6318H6.97896V30.5594H5.77224ZM8.91936 23.5559V17.7326C9.8136 17.8384 10.4573 18.1315 10.9282 18.5649C11.7792 19.3475 11.7662 20.1698 11.7662 20.1698V23.5559H14.9594V19.822C14.9594 18.184 14.0926 16.7771 13.0061 16.0067C11.5236 14.9555 9.69552 14.8591 9.69552 14.8591H5.72616V23.5559H8.91936ZM0.540001 34.5597H26.46V1.4397H0.540001V34.5597ZM1.674 33.2493H25.3253V2.7501H1.674V33.2493Z" fill="#8B8D92"/>
</svg>
