<svg width="375" height="375" viewBox="0 0 375 375" fill="none" xmlns="http://www.w3.org/2000/svg">
<rect width="375" height="375" fill="#F2F3F7"/>
<g clip-path="url(#clip0_29958_509)">
<path fill-rule="evenodd" clip-rule="evenodd" d="M243.855 200.894C243.855 206.381 240.513 208.194 237.442 208.194C237.442 208.194 237.44 216.058 237.442 216.058C242.044 216.058 251.786 214.764 251.836 201.035H251.837V171.683H243.855V200.894ZM229.313 201.304H237.382V158.317H229.313V201.304ZM279.966 186.704C279.966 182.492 276.512 179.078 272.251 179.078C267.991 179.078 264.537 182.492 264.537 186.704C264.537 190.914 267.991 194.328 272.251 194.328C276.512 194.328 279.966 190.914 279.966 186.704ZM288 187.585V201.311H280.851V198.255C278.52 200.582 275.503 201.995 272.251 201.995C263.685 201.995 256.742 195.132 256.742 186.665C256.742 178.199 263.685 171.337 272.251 171.337C280.803 171.337 287.999 178.021 287.999 187.586L288 187.585ZM145.364 186.704C145.364 182.492 141.91 179.078 137.649 179.078C133.389 179.078 129.934 182.492 129.934 186.704C129.934 190.914 133.389 194.328 137.649 194.328C141.91 194.328 145.364 190.914 145.364 186.704ZM153.398 187.586V187.585V201.311H146.248V198.255C143.917 200.582 140.9 201.995 137.649 201.995C129.083 201.995 122.139 195.132 122.139 186.665C122.139 178.199 129.083 171.337 137.649 171.337C146.202 171.337 153.398 178.021 153.398 187.586ZM216.454 186.704C216.454 182.492 213 179.078 208.739 179.078C204.479 179.078 201.024 182.492 201.024 186.704C201.024 190.914 204.479 194.328 208.739 194.328C213 194.328 216.454 190.914 216.454 186.704ZM224.249 186.704C224.249 195.169 217.304 202.032 208.738 202.032C200.173 202.032 193.228 195.169 193.228 186.704C193.228 178.237 200.173 171.375 208.738 171.375C217.304 171.375 224.249 178.237 224.249 186.704ZM113.149 171.692L105.304 190.272L97.2563 171.69H88L101.071 199.479L93.6064 215.981H102.536L122.429 171.692H113.149ZM188.261 183.923V201.311H180.334V184.573C180.334 181.094 178.054 178.468 173.954 178.468C170.226 178.468 167.564 181.094 167.564 184.644L167.556 201.311H159.654V171.683H167.247V175.165C169.153 172.243 173.071 171.339 175.838 171.339C184.935 171.339 188.261 177.264 188.261 183.923Z" fill="#DADBDF"/>
</g>
<defs>
<clipPath id="clip0_29958_509">
<rect width="200" height="73.1707" fill="white" transform="translate(88 151)"/>
</clipPath>
</defs>
</svg>
