<svg width="186" height="131" viewBox="0 0 186 131" fill="none" xmlns="http://www.w3.org/2000/svg">
<g clip-path="url(#clip0_285_61674)">
<path d="M74.1526 57.0041H30C13.4315 57.0041 0 43.5727 0 27.0041V131H157.079C146.318 131 136.381 125.236 131.038 115.895L108.874 77.1447C101.751 64.6895 88.5011 57.0041 74.1526 57.0041Z" fill="white"/>
<path d="M46.6641 118.221C31.1367 117.977 20.8828 108.455 20.834 96.6387C20.834 96.1016 20.834 95.6621 20.8828 95.3691H34.457C34.9453 101.717 40.2188 106.062 47.4941 106.062C55.1602 106.062 61.0195 100.545 61.0195 92.7324C61.0195 85.6035 56.2344 80.916 49.0566 80.916C44.5645 80.916 39.8281 82.7715 37.2891 86.2383H23.4707L35.5312 46.541H79.7207L77.1328 58.6992H44.8574L39.0957 76.2773H39.4375C42.8066 72.4688 48.1289 70.3203 54.623 70.3203C66.2441 70.3203 74.8867 78.4258 74.9844 91.2676C75.1309 107.137 63.0215 118.416 46.6641 118.221Z" fill="#1B1C1F"/>
</g>
<defs>
<clipPath id="clip0_285_61674">
<rect width="186" height="131" fill="white"/>
</clipPath>
</defs>
</svg>
