<svg width="186" height="131" viewBox="0 0 186 131" fill="none" xmlns="http://www.w3.org/2000/svg">
<g clip-path="url(#clip0_285_61673)">
<path d="M74.1526 57.0041H30C13.4315 57.0041 0 43.5727 0 27.0041V131H157.079C146.318 131 136.381 125.236 131.038 115.895L108.874 77.1447C101.751 64.6895 88.5011 57.0041 74.1526 57.0041Z" fill="white"/>
<path d="M49.2031 117L51.8887 104.695H16.8789L19.3203 91.0723C28.1094 79.207 40.5605 64.8027 56.625 46.541H78.2559L68.4414 92.4395H77.6699L75.1309 104.695H65.9512L63.2656 117H49.2031ZM32.6016 92.5859L32.5527 92.8789H54.623L62.1914 57.7715H61.8984C53.3535 67.2441 41.5371 80.9648 32.6016 92.5859Z" fill="#1B1C1F"/>
</g>
<defs>
<clipPath id="clip0_285_61673">
<rect width="186" height="131" fill="white"/>
</clipPath>
</defs>
</svg>
