<svg width="186" height="131" viewBox="0 0 186 131" fill="none" xmlns="http://www.w3.org/2000/svg">
<g clip-path="url(#clip0_285_61671)">
<path d="M74.1526 57.0041H30C13.4315 57.0041 0 43.5727 0 27.0041V131H157.079C146.318 131 136.381 125.236 131.038 115.895L108.874 77.1447C101.751 64.6895 88.5011 57.0041 74.1526 57.0041Z" fill="white"/>
<path d="M25.4238 67.8789C26.5469 54.6465 37.8262 45.3203 52.7188 45.3203C66.293 45.3203 76.3027 53.1816 76.3027 64.2656C76.3027 73.4453 71.957 78.9629 56.2344 91.0723L38.5586 104.549L38.5098 104.842H69.9062L67.416 117H16.2441L18.4902 106.014L47.25 83.6016C58.5781 74.8125 61.752 71.1016 61.752 65.877C61.752 60.7988 57.6016 57.3809 51.7422 57.3809C45.1504 57.3809 40.3652 61.2383 39.0957 67.8789H25.4238Z" fill="#1B1C1F"/>
</g>
<defs>
<clipPath id="clip0_285_61671">
<rect width="186" height="131" fill="white"/>
</clipPath>
</defs>
</svg>
