<svg width="186" height="131" viewBox="0 0 186 131" fill="none" xmlns="http://www.w3.org/2000/svg">
<g clip-path="url(#clip0_285_61672)">
<path d="M74.1526 57.0041H30C13.4315 57.0041 0 43.5727 0 27.0041V131H157.079C146.318 131 136.381 125.236 131.038 115.895L108.874 77.1447C101.751 64.6895 88.5011 57.0041 74.1526 57.0041Z" fill="white"/>
<path d="M39.0472 85.9941L41.2933 75.1543H49.8382C57.9925 75.1543 63.4124 71.7363 63.4124 66.1211C63.4124 60.8965 59.1155 57.3809 52.2308 57.3809C45.9808 57.3809 41.1956 60.7012 39.8772 65.8281H26.303C28.7933 53.2305 39.2425 45.3691 53.5491 45.3691C67.8558 45.3691 77.6214 53.6699 77.6214 64.5098C77.6214 73.0547 70.639 79.6953 61.2151 80.9648L61.1663 81.2578C68.8323 83.1133 73.2757 88.7285 73.2757 96.1504C73.2757 109.139 61.4104 118.172 45.6878 118.172C28.9886 118.172 18.7835 109.285 19.0765 96.9805C19.0765 96.3945 19.1253 95.8086 19.2718 95.0762H32.9925C32.7483 101.375 37.387 106.062 45.8343 106.062C53.3538 106.062 58.8225 101.863 58.8225 95.3691C58.8225 89.6074 54.5257 85.9941 47.2015 85.9941H39.0472Z" fill="#1B1C1F"/>
</g>
<defs>
<clipPath id="clip0_285_61672">
<rect width="186" height="131" fill="white"/>
</clipPath>
</defs>
</svg>
