<svg width="28" height="50" viewBox="0 0 28 50" fill="none" xmlns="http://www.w3.org/2000/svg">
<g clip-path="url(#clip0_285_61667)">
<rect width="28" height="50" fill="white"/>
<path d="M9.58156 27.5977L10.48 23.2617H13.898C17.1597 23.2617 19.3277 21.8945 19.3277 19.6484C19.3277 17.5586 17.6089 16.1523 14.855 16.1523C12.355 16.1523 10.4409 17.4805 9.91359 19.5312H4.4839C5.48 14.4922 9.65968 11.3477 15.3823 11.3477C21.105 11.3477 25.0112 14.668 25.0112 19.0039C25.0112 22.4219 22.2183 25.0781 18.4487 25.5859L18.4292 25.7031C21.4956 26.4453 23.273 28.6914 23.273 31.6602C23.273 36.8555 18.5269 40.4688 12.2378 40.4688C5.55812 40.4688 1.47609 36.9141 1.59328 31.9922C1.59328 31.7578 1.61281 31.5234 1.6714 31.2305H7.15968C7.06203 33.75 8.9175 35.625 12.2964 35.625C15.3042 35.625 17.4917 33.9453 17.4917 31.3477C17.4917 29.043 15.773 27.5977 12.8433 27.5977H9.58156Z" fill="#1B1C1F"/>
</g>
<defs>
<clipPath id="clip0_285_61667">
<rect width="28" height="50" fill="white"/>
</clipPath>
</defs>
</svg>
