<svg width="28" height="50" viewBox="0 0 28 50" fill="none" xmlns="http://www.w3.org/2000/svg">
<g clip-path="url(#clip0_285_61669)">
<rect width="28" height="50" fill="white"/>
<path d="M12.7656 40.4883C6.55469 40.3906 2.45312 36.582 2.43359 31.8555C2.43359 31.6406 2.43359 31.4648 2.45312 31.3477H7.88281C8.07812 33.8867 10.1875 35.625 13.0977 35.625C16.1641 35.625 18.5078 33.418 18.5078 30.293C18.5078 27.4414 16.5938 25.5664 13.7227 25.5664C11.9258 25.5664 10.0312 26.3086 9.01562 27.6953H3.48828L8.3125 11.8164H25.9883L24.9531 16.6797H12.043L9.73828 23.7109H9.875C11.2227 22.1875 13.3516 21.3281 15.9492 21.3281C20.5977 21.3281 24.0547 24.5703 24.0938 29.707C24.1523 36.0547 19.3086 40.5664 12.7656 40.4883Z" fill="#1B1C1F"/>
</g>
<defs>
<clipPath id="clip0_285_61669">
<rect width="28" height="50" fill="white"/>
</clipPath>
</defs>
</svg>
